<?xml version="1.0" encoding="utf-8"?>
<!-- Generator: Adobe Illustrator 19.2.1, SVG Export Plug-In . SVG Version: 6.00 Build 0)  -->
<svg version="1.1" id="Layer_1" xmlns="http://www.w3.org/2000/svg"  x="0px" y="0px"
	 viewBox="0 0 211.5 66.4" style="enable-background:new 0 0 211.5 66.4;" xml:space="preserve">
<style type="text/css">
	.st0{fill:#5393D6;}
	.st1{fill:#272425;}
</style>
<title>logo svg black</title>
<g>
	<path class="st0" d="M68.5,64.9c-3.9-1.5-7.3-4.5-9.1-8.7c-3.4-7.8-0.8-15.8,7.1-21.5c5.1-3.6,6-6.2,4.8-12.3
		C69.4,13.2,73,5.1,80.5,1.8c8.3-3.7,18,0.1,21.6,8.4c3.3,7.5,0.5,15.9-7.1,21.5c-5.4,3.9-5.8,7.5-4.8,12.3l0,0
		c2,9.2-1.6,17.3-9.2,20.7C76.9,66.4,72.4,66.4,68.5,64.9z M90.3,8.5c-2.1-0.8-4.5-0.8-6.8,0.2c-1.6,0.7-6.7,3.7-4.9,12.2
		c1.9,9.1-0.3,14.7-7.8,20c-2.8,2-7.2,6.3-4.6,12.3c2,4.5,7.2,6.5,11.7,4.5c6.4-2.8,5.4-10,4.9-12.2c-1.9-8.6,0.5-14.8,7.7-20
		c7.1-5.1,5.3-10.7,4.6-12.3C94.3,11,92.5,9.4,90.3,8.5z"/>
</g>
<path class="st1" d="M10.5,1.5v28.2H3.2V1.5H10.5z"/>
<path class="st1" d="M16.8,29.7V1.5h7l10.9,16.1c-0.1-1.3-0.2-3.1-0.2-4.7V1.5h7.6v28.2H35L24,13.5c0.1,1.3,0.1,3.1,0.1,4.6v11.5
	H16.8z"/>
<path class="st1" d="M69.6,1.5v6.6H55.7v5.5h9.8l-1.2,6.6h-8.6v9.3h-7.6V1.5H69.6z"/>
<path class="st1" d="M129.1,1.5v6.6h-7.9v21.5h-7.6V8.2h-7.9V1.5H129.1L129.1,1.5z"/>
<path class="st1" d="M154.1,1.5v6.3h-13.6v4.4h9.3l-1.2,6.3h-8.1v4.7h13.9v6.3h-21.5V1.5H154.1z"/>
<path class="st1" d="M172.2,0.9c2.7,0,5.5,0.2,8.2,0.6l-1.2,6.2l0,0c-1.9-0.3-3.8-0.4-5.7-0.3c-4.5,0-8.9,2.5-8.9,8.6
	c0,5.5,4.4,7.7,8.8,7.7c2,0,4-0.1,6-0.5l0,0l1.2,6.4c-2.7,0.4-5.5,0.6-8.2,0.6c-7.7,0-15.4-4.2-15.4-14.3
	C156.9,5.4,164.6,0.9,172.2,0.9z"/>
<path class="st1" d="M210.8,1.5v28.2h-7.6V18.9h-10.5v10.7h-7.3V1.5h7.3v10.8h10.5V1.5H210.8L210.8,1.5z"/>
<path class="st1" d="M16.2,36.1c3.2,0,6.8,0.2,10,0.6l-1,6.6c-2.8-0.4-5.1-0.7-8-0.7c-4.5,0-8.9,1.9-8.9,7.7c0,7,5,8.3,8.2,8.3
	c0.6,0,1.3,0,1.9-0.2v-6.3l7.3-1.2v13.5c-3.1,0.4-6.2,0.6-9.4,0.6C8.3,65,0.7,60.5,0.7,50.3C0.7,39.8,8.4,36.1,16.2,36.1z"/>
<path class="st1" d="M31.7,64.5V36.3h11.8c5.7,0,11.5,2,11.5,9.5c0,4.7-2.3,7.2-5.4,8.4l0,0l7.7,10.2H49l-6.7-9.1H39v9.2H31.7z
	 M39,49.3h4.9c2.1,0,3.6-1.2,3.6-3.3s-1.5-3.3-3.6-3.3H39L39,49.3L39,49.3z"/>
<path class="st1" d="M121.2,36.3v17.4c0,8.5-6.4,11.3-12.7,11.3c-6.2,0-12.6-2.9-12.6-11.3V36.3h7.3v16.9c0,3.8,2,5.1,5.2,5.1
	c3.2,0,5.2-1.3,5.2-5.1V36.3H121.2L121.2,36.3z"/>
<path class="st1" d="M138.4,36.3c7,0,12.3,2.3,12.3,9.6s-5.3,9.6-12.3,9.6h-3.6v8.9h-7.6V36.3H138.4L138.4,36.3z M138.8,42.6h-4v6.6
	h4c2.3,0,4.3-0.8,4.3-3.3S141.1,42.6,138.8,42.6L138.8,42.6z"/>
</svg>
